<?xml version="1.0" encoding="iso-8859-1"?>
<!-- Uploaded to: SVG Repo, www.svgrepo.com, Generator: SVG Repo Mixer Tools -->
<svg height="800px" width="800px" version="1.1" id="Layer_1" xmlns="http://www.w3.org/2000/svg" xmlns:xlink="http://www.w3.org/1999/xlink" 
	 viewBox="0 0 503.467 503.467" xml:space="preserve">
<g transform="translate(4 1)">
	<g>
		<path style="fill:#AE938D;" d="M58.293,429.933h94.72v1.707c0,12.8,5.12,32.427,5.12,32.427
			c5.973,23.893,11.947,34.133,11.947,34.133h-76.8c0,0-11.947-6.827-25.6-34.133C67.68,464.067,60.854,449.56,58.293,429.933
			L58.293,429.933z M93.28,3.267h76.8c0,0-10.24,20.48-19.627,67.413v0.853H54.027C71.947,16.067,93.28,3.267,93.28,3.267z
			 M42.08,139.8h100.693v0.853c-2.56,15.36-4.267,33.28-4.267,33.28c-1.707,23.04-2.56,48.64-2.56,76.8
			c0,43.52,1.707,80.213,5.12,110.933H40.374c-4.267-29.867-6.827-66.56-6.827-110.933c0-29.013,0.853-54.613,2.56-76.8
			C36.96,173.933,37.813,156.867,42.08,139.8L42.08,139.8z"/>
		<path style="fill:#AE938D;" d="M246.88,139.8v221.867H141.067c-2.56-30.72-5.12-67.413-5.12-110.933
			c0-28.16,0.853-53.76,2.56-76.8c0,0,1.707-18.773,4.267-33.28V139.8H246.88z M246.88,3.267v68.267h-96.427V70.68
			C159.84,22.893,170.08,3.267,170.08,3.267H246.88z M153.013,429.933h93.867V498.2h-17.067l-17.067-17.067L195.68,498.2h-25.6
			c0,0-5.12-10.24-11.947-34.133c0,0-5.12-19.627-5.12-32.427V429.933z"/>
		<path style="fill:#AE938D;" d="M343.307,70.68L343.307,70.68l-96.427,0.853V3.267h42.667l17.067,17.067L323.68,3.267
			C323.68,3.267,333.92,23.747,343.307,70.68z M355.253,173.933c1.707,23.04,2.56,48.64,2.56,76.8c0,42.667-1.707,79.36-5.12,110.08
			v0.853H246.88V139.8h104.107v0.853C354.4,159.427,355.253,173.933,355.253,173.933z M246.88,429.933h93.867v0.853
			c-0.853,17.067-5.12,33.28-5.12,33.28C328.8,487.96,323.68,498.2,323.68,498.2h-76.8V429.933z"/>
		<path style="fill:#AE938D;" d="M438.88,71.533h-96.427V70.68c-9.387-47.787-19.627-67.413-19.627-67.413h76.8
			C400.48,3.267,421.814,16.067,438.88,71.533z M350.987,139.8h99.84v0.853c5.12,13.653,6.827,33.28,6.827,33.28
			c1.707,22.187,3.413,47.787,3.413,76.8c0,44.373-2.56,81.067-6.827,110.933H353.547v-0.853c3.413-30.72,5.12-67.413,5.12-110.08
			c0-28.16-0.853-53.76-2.56-76.8C355.253,173.933,354.4,159.427,350.987,139.8L350.987,139.8z M340.747,429.933h93.867v0.853
			c-2.56,17.92-8.533,33.28-8.533,33.28c-13.653,27.307-25.6,34.133-25.6,34.133h-76.8c0,0,5.12-10.24,11.947-34.133
			C335.627,464.067,339.893,447.853,340.747,429.933L340.747,429.933z"/>
	</g>
	<path style="fill:#E4F2DE;" d="M141.067,361.667H246.88h105.813h100.693h15.36l-17.067,68.267h-17.067h-93.867H246.88h-93.867
		h-94.72H42.08l-17.067-68.267h15.36H141.067z M451.68,71.533l17.067,68.267h-17.92h-99.84H246.88H141.92H42.08H25.013L42.08,71.533
		h12.8h96.427h96.427h96.427h96.427H451.68z"/>
	<path style="fill:#AAB1BA;" d="M357.814,404.333c5.12,0,8.533-3.413,8.533-8.533s-3.413-8.533-8.533-8.533
		c-5.12,0-8.533,3.413-8.533,8.533S352.693,404.333,357.814,404.333z M357.814,114.2c5.12,0,8.533-3.413,8.533-8.533
		c0-5.12-3.413-8.533-8.533-8.533c-5.12,0-8.533,3.413-8.533,8.533C349.28,110.787,352.693,114.2,357.814,114.2z M246.88,114.2
		c5.12,0,8.533-3.413,8.533-8.533c0-5.12-3.413-8.533-8.533-8.533s-8.533,3.413-8.533,8.533
		C238.347,110.787,241.76,114.2,246.88,114.2z M135.947,114.2c5.12,0,8.533-3.413,8.533-8.533c0-5.12-3.413-8.533-8.533-8.533
		c-5.12,0-8.533,3.413-8.533,8.533C127.413,110.787,130.827,114.2,135.947,114.2z M246.88,404.333c5.12,0,8.533-3.413,8.533-8.533
		s-3.413-8.533-8.533-8.533s-8.533,3.413-8.533,8.533S241.76,404.333,246.88,404.333z M135.947,404.333
		c5.12,0,8.533-3.413,8.533-8.533s-3.413-8.533-8.533-8.533c-5.12,0-8.533,3.413-8.533,8.533S130.827,404.333,135.947,404.333z"/>
</g>
<path style="fill:#51565F;" d="M174.08,503.467L174.08,503.467h-76.8c-0.853,0-1.707,0-1.707-0.853
	c-0.853,0-13.653-7.68-27.307-35.84c-0.853-1.707,0-4.267,1.707-5.973c1.707-0.853,4.267,0,5.973,1.707
	c10.24,21.333,20.48,29.867,23.04,31.573h69.12c-2.56-5.12-5.12-15.36-9.387-29.013c-0.853-2.56,0.853-4.267,2.56-5.12
	c2.56-0.853,4.267,0.853,5.12,2.56l10.24,31.573h20.48l16.213-16.213c1.707-1.707,4.267-1.707,5.973,0l16.213,16.213h11.093v-29.013
	c0-2.56,1.707-4.267,4.267-4.267s4.267,1.707,4.267,4.267v29.867h69.12l10.24-31.573c0.853-2.56,3.413-3.413,5.12-2.56
	c2.56,0.853,3.413,2.56,2.56,5.12c-3.413,13.653-6.827,23.04-9.387,29.013h69.12c2.56-1.707,12.8-10.24,23.04-32.427
	c0.853-1.707,3.413-2.56,5.973-1.707c1.707,0.853,3.413,3.413,1.707,5.973c-13.653,28.16-26.453,35.84-27.307,35.84
	c-0.853,0-1.707,0.853-1.707,0.853h-76.8l0,0H232.96c-0.853,0-2.56-0.853-3.413-0.853l-13.653-13.653l-13.653,13.653
	c-0.853,0.853-1.707,0.853-3.413,0.853L174.08,503.467C174.08,503.467,174.08,503.467,174.08,503.467z M455.68,435.2H46.08
	c-1.707,0-3.413-1.707-4.267-3.413L24.747,363.52c0-0.853,0-2.56,0.853-3.413c0.853-0.853,1.707-1.707,3.413-1.707h10.24
	c-4.267-31.573-5.973-67.413-5.973-106.667c0-27.307,0.853-53.76,3.413-76.8c0-2.56,2.56-4.267,4.267-4.267
	c2.56,0,4.267,2.56,4.267,4.267c-1.707,23.893-2.56,49.493-2.56,76.8c0,39.253,1.707,75.093,5.973,106.667h92.16
	c-3.413-32.427-4.267-68.267-4.267-106.667c0-26.453,0.853-52.907,2.56-76.8c0-2.56,2.56-4.267,4.267-4.267
	c2.56,0,4.267,2.56,4.267,4.267c-1.707,23.893-2.56,50.347-2.56,76.8c0,38.4,1.707,74.24,4.267,106.667h98.133V174.933
	c0-2.56,1.707-4.267,4.267-4.267c2.56,0,4.267,1.707,4.267,4.267V358.4h98.133c3.413-32.427,4.267-68.267,4.267-106.667
	c0-26.453-0.853-52.053-2.56-76.8c0-2.56,1.707-4.267,4.267-4.267s4.267,1.707,4.267,4.267c1.707,24.747,2.56,50.347,2.56,76.8
	c0,38.4-1.707,74.24-4.267,106.667h92.16c4.267-31.573,5.973-67.413,5.973-106.667c0-27.307-0.853-52.907-2.56-76.8
	c0-2.56,1.707-4.267,4.267-4.267s4.267,1.707,4.267,4.267c1.707,23.893,3.413,49.493,3.413,76.8
	c0,39.253-1.707,75.093-5.973,106.667h10.24c1.707,0,2.56,0.853,3.413,1.707c0.853,0.853,0.853,2.56,0.853,3.413l-17.067,68.267
	C459.093,433.493,457.387,435.2,455.68,435.2z M49.493,426.667h402.773l15.36-59.733h-9.387l0,0H148.48
	c-0.853,0-0.853,0.853-1.707,0.853c-0.853,0-1.707,0-2.56-0.853H46.08l0,0h-9.387L49.493,426.667z M361.814,409.6
	c-6.827,0-12.8-5.973-12.8-12.8s5.973-12.8,12.8-12.8s12.8,5.973,12.8,12.8S368.64,409.6,361.814,409.6z M361.814,392.533
	c-2.56,0-4.267,1.707-4.267,4.267s1.707,4.267,4.267,4.267s4.267-1.707,4.267-4.267S364.374,392.533,361.814,392.533z M250.88,409.6
	c-6.827,0-12.8-5.973-12.8-12.8s5.973-12.8,12.8-12.8s12.8,5.973,12.8,12.8S257.707,409.6,250.88,409.6z M250.88,392.533
	c-2.56,0-4.267,1.707-4.267,4.267s1.707,4.267,4.267,4.267s4.267-1.707,4.267-4.267S253.44,392.533,250.88,392.533z M139.947,409.6
	c-6.827,0-12.8-5.973-12.8-12.8s5.973-12.8,12.8-12.8c6.827,0,12.8,5.973,12.8,12.8S146.773,409.6,139.947,409.6z M139.947,392.533
	c-2.56,0-4.267,1.707-4.267,4.267s1.707,4.267,4.267,4.267c2.56,0,4.267-1.707,4.267-4.267S142.507,392.533,139.947,392.533z
	 M472.747,145.067H29.013c-1.707,0-2.56-0.853-3.413-1.707c-0.853-0.853-0.853-2.56-0.853-3.413L41.813,71.68
	c0.853-1.707,2.56-3.413,4.267-3.413h9.387c17.067-54.613,38.4-67.413,40.107-67.413C96.427,0.853,97.28,0,97.28,0h76.8l0,0h119.467
	c0.853,0,2.56,0.853,3.413,0.853l13.653,13.653l13.653-13.653c0,0,0.853-0.853,1.707-0.853l0,0l0,0l0,0c0.853,0,0.853,0,1.707,0
	h76.8c0.853,0,1.707,0,1.707,0.853c0.853,0.853,22.187,13.653,40.107,67.413h9.387c1.707,0,3.413,1.707,4.267,3.413l17.067,68.267
	c0,0.853,0,2.56-0.853,3.413C475.307,144.213,474.453,145.067,472.747,145.067z M34.134,136.533h432.64L451.414,76.8h-9.387l0,0
	h-384l0,0H48.64L34.134,136.533z M350.72,68.267h87.04C424.107,25.6,407.04,11.093,403.627,8.533h-69.12
	C337.92,17.92,344.747,36.693,350.72,68.267z M255.147,68.267h86.187L325.12,12.8l-11.947,11.947c-1.707,1.707-4.267,1.707-5.973,0
	L290.987,8.533h-36.693v59.733H255.147z M160.427,68.267h86.187V8.533h-69.12L160.427,68.267z M64,68.267h87.04
	c5.973-31.573,12.8-50.347,16.213-59.733h-69.12C94.72,11.093,78.507,25.6,64,68.267z M361.814,119.467
	c-6.827,0-12.8-5.973-12.8-12.8s5.973-12.8,12.8-12.8s12.8,5.973,12.8,12.8S368.64,119.467,361.814,119.467z M361.814,102.4
	c-2.56,0-4.267,1.707-4.267,4.267s1.707,4.267,4.267,4.267s4.267-1.707,4.267-4.267S364.374,102.4,361.814,102.4z M250.88,119.467
	c-6.827,0-12.8-5.973-12.8-12.8s5.973-12.8,12.8-12.8s12.8,5.973,12.8,12.8S257.707,119.467,250.88,119.467z M250.88,102.4
	c-2.56,0-4.267,1.707-4.267,4.267s1.707,4.267,4.267,4.267s4.267-1.707,4.267-4.267S253.44,102.4,250.88,102.4z M139.947,119.467
	c-6.827,0-12.8-5.973-12.8-12.8s5.973-12.8,12.8-12.8c6.827,0,12.8,5.973,12.8,12.8S146.773,119.467,139.947,119.467z
	 M139.947,102.4c-2.56,0-4.267,1.707-4.267,4.267s1.707,4.267,4.267,4.267c2.56,0,4.267-1.707,4.267-4.267
	S142.507,102.4,139.947,102.4z"/>
</svg>